<?xml version="1.0" encoding="UTF-8" standalone="no"?>
<!DOCTYPE svg PUBLIC "-//W3C//DTD SVG 1.1//EN" "http://www.w3.org/Graphics/SVG/1.1/DTD/svg11.dtd">
<svg width="100%" height="100%" viewBox="0 0 103 137" version="1.1" xmlns="http://www.w3.org/2000/svg" xmlns:xlink="http://www.w3.org/1999/xlink" xml:space="preserve" xmlns:serif="http://www.serif.com/" style="fill-rule:evenodd;clip-rule:evenodd;stroke-linejoin:round;stroke-miterlimit:2;">
    <g transform="matrix(1,0,0,1,-2607,-238)">
        <g transform="matrix(2.67586,0,0,1.44961,1680.8,0)">
            <g transform="matrix(1.03933e-16,-1.04439,-0.565783,-1.91851e-16,394.321,263.783)">
                <path d="M41.572,17.705C41.349,17.692 41.143,17.697 40.973,17.723C40.399,17.809 38.765,18.445 38.299,18.764C37.719,19.16 37.026,19.863 36.818,20.266C36.334,21.203 36.186,22.719 36.441,24.17C36.648,25.341 36.594,26.449 36.314,26.758C35.993,27.113 35.428,27.019 34.703,26.488C34.042,26.004 33.848,25.736 32.777,23.84C31.313,21.247 29.695,19.534 27.902,18.678C27.064,18.277 27.018,18.27 25.803,18.271C24.704,18.273 24.508,18.3 24.078,18.527C23.811,18.669 23.394,18.889 23.154,19.014C22.005,19.612 21.659,20.101 21.213,21.756C20.601,24.024 20.656,23.9 20.15,24.145C19.53,24.445 19.105,24.427 17.91,24.045C16.772,23.681 16.372,23.654 15.617,23.883C14.618,24.186 14.375,24.413 13.344,26.018C13.188,26.26 13.14,26.529 13.143,27.107C13.147,28.059 13.4,28.827 14.158,30.182C14.585,30.945 14.734,31.33 14.77,31.758C14.846,32.677 14.574,33.134 13.289,34.24C12.04,35.315 11.686,35.902 11.586,37.059C11.499,38.068 11.773,38.868 12.854,40.723C13.04,41.043 13.17,41.421 13.172,41.652C13.174,42.007 13.119,42.08 12.555,42.467C12.213,42.701 11.591,43.026 11.176,43.191C10.76,43.357 10.155,43.654 9.828,43.85C9.502,44.045 8.823,44.416 8.318,44.676C6.554,45.584 5.528,46.986 5.291,48.818C5.245,49.175 5.151,49.782 5.08,50.168C4.913,51.081 4.993,51.622 5.438,52.574C6.095,53.981 7.185,55.065 9.07,56.184C10.826,57.225 11.959,57.605 13.453,57.656C14.008,57.675 14.432,57.75 14.637,57.865C15.319,58.247 17.764,58.978 18.725,59.086C19.342,59.155 20.156,59.372 20.533,59.566C20.869,59.739 21.378,60.22 21.377,60.363C20.035,62.52 17.702,63.915 16.727,66.332C16.542,66.808 16.485,67.196 16.477,67.98C16.466,69.037 16.613,69.611 17.053,70.24C17.159,70.392 17.226,70.573 17.201,70.643C17.177,70.712 17.277,71.01 17.426,71.303C18.171,72.774 19.292,73.444 21.883,73.969C22.616,74.117 23.462,74.363 23.764,74.516C24.704,74.992 25.848,75.237 26.775,75.16C28.783,74.993 30.484,74.282 33.422,72.385C35.157,71.264 39.015,69.447 40.596,69.006C41.159,68.849 41.826,68.652 42.08,68.566C42.334,68.481 42.748,68.414 42.998,68.416L43.453,68.42L43.021,68.805C42.482,69.283 41.59,69.809 40.57,70.254C39.519,70.712 38.949,71.068 36.572,72.742C35.19,73.716 34.597,74.282 33.795,75.4C33.178,76.261 32.941,76.854 32.934,77.557C32.927,78.141 33.204,78.991 33.566,79.508C33.679,79.668 33.799,80.031 33.834,80.314C33.944,81.216 34.567,82.075 35.574,82.715C36.531,83.323 37.018,83.435 38.92,83.48C42.365,83.563 42.36,83.564 42.988,84.016C43.296,84.236 43.793,84.532 44.094,84.672C45,85.094 46.216,84.977 48.203,84.275C49.345,83.872 49.962,83.572 51.064,82.881C51.51,82.602 52.409,82.063 53.062,81.686C54.878,80.637 55.78,79.99 56.729,79.055C58.756,77.056 59.333,76.714 61.643,76.152C65.271,75.27 66.719,75.063 66.719,75.428C66.719,75.484 66.53,75.816 66.303,76.168C65.81,76.93 65.469,78.424 65.559,79.414C65.589,79.745 65.578,80.137 65.537,80.285C65.412,80.742 65.543,81.065 66.062,81.584C66.567,82.088 67.166,82.338 67.877,82.338C68.393,82.338 69.45,82.02 69.832,81.75C70.314,81.41 71.053,80.409 71.523,79.461C72.141,78.217 73.212,77.371 74.58,77.049C75.783,76.765 76.649,77.057 77.943,78.182C78.389,78.568 78.952,78.984 79.193,79.102C79.755,79.376 80.484,79.373 81.182,79.098C81.867,78.827 82.067,78.829 82.961,79.105C83.577,79.296 83.78,79.429 84.363,80.023C85.013,80.686 85.068,80.719 85.561,80.719C86.144,80.719 86.954,80.316 87.062,79.973C87.1,79.853 87.007,79.521 86.838,79.176C86.504,78.496 86.539,78.284 87.004,78.182C87.417,78.091 88.587,78.705 90.561,80.047C91.864,80.933 93.264,81.689 93.596,81.688C93.686,81.687 93.842,81.543 93.943,81.365C94.044,81.187 94.201,81.041 94.293,81.041C94.387,81.041 94.461,80.949 94.461,80.828C94.461,80.689 94.557,80.59 94.736,80.545C95.159,80.439 95.051,80.052 94.568,79.941C94.361,79.894 94.023,79.799 93.816,79.73C93.281,79.553 90.899,78.222 90.297,77.762C90.017,77.548 89.746,77.371 89.695,77.371C89.644,77.371 89.604,77.256 89.604,77.113C89.604,76.554 90.876,75.761 91.916,75.672C92.277,75.641 92.656,75.544 92.76,75.453C92.967,75.272 93.021,74.672 92.83,74.672C92.578,74.672 91.877,73.999 91.658,73.547C91.516,73.252 91.41,72.775 91.377,72.281C91.261,70.539 90.935,69.057 90.564,68.586C90.408,68.387 90.173,68.278 89.695,68.184C89.311,68.108 88.833,67.916 88.543,67.721C87.731,67.173 85.623,64.322 85.264,63.285C84.867,62.141 84.993,61.28 86.105,57.562C86.694,55.594 86.72,55.466 86.709,54.354C86.699,53.354 86.658,53.115 86.424,52.619C86.274,52.303 86.026,51.926 85.871,51.781C85.616,51.541 85.5,51.516 84.6,51.516C83.678,51.516 83.566,51.544 82.934,51.887C82.028,52.378 81.458,52.893 80.371,54.215C79.871,54.823 79.344,55.397 79.199,55.492C78.952,55.654 78.913,55.651 78.584,55.428C77.947,54.994 77.781,54.662 77.795,53.857C77.805,53.304 77.889,52.948 78.156,52.326C78.348,51.881 78.65,51.081 78.828,50.547C79.194,49.452 79.194,49.185 78.842,46.875C78.572,45.102 78.601,43.026 78.916,41.586C79.297,39.845 79.304,39.347 78.969,37.896C78.526,35.983 78.114,34.847 77.213,33.059C76.493,31.63 76.297,31.335 75.543,30.559C74.626,29.614 73.874,29.176 72.949,29.049C72.558,28.995 72.34,29.039 71.844,29.266C71.456,29.443 71.037,29.551 70.719,29.551C69.903,29.551 69.322,29.816 68.365,30.631C66.667,32.077 65.772,34.162 65.754,36.723C65.746,37.82 65.9,39.451 66.074,40.129C66.199,40.617 65.968,41.966 65.656,42.576C65.252,43.367 64.741,43.277 64.404,42.355C64.152,41.666 64.021,40.407 63.91,37.645C63.751,33.669 63.67,33.065 63.1,31.408C62.814,30.577 62.558,29.599 62.494,29.086C62.433,28.599 62.346,28.072 62.299,27.916C62.251,27.76 62.264,27.001 62.326,26.227C62.424,25.008 62.415,24.718 62.256,24.061C61.897,22.576 60.73,20.568 60.266,20.637C60.162,20.652 59.728,20.427 59.301,20.137L58.525,19.609L57.25,19.586C56.064,19.566 55.933,19.584 55.35,19.857C54.628,20.196 53.732,21.071 53.309,21.85C53.153,22.136 52.849,22.977 52.633,23.719C51.984,25.952 51.412,26.959 50.795,26.959C50.352,26.959 49.685,26.559 49.346,26.09C49.174,25.853 48.899,25.283 48.734,24.824C47.968,22.688 47.086,21.053 46.295,20.305C45.42,19.477 44.159,18.5 43.596,18.211C43.072,17.942 42.242,17.744 41.572,17.705ZM26.514,23.25C26.863,23.503 32.189,39.109 32.363,39.26C40.019,45.878 46.662,52.474 49.299,52.373C49.299,52.373 48.544,50.356 48.52,48.67C35.13,-4.33 47.679,44.51 50.461,52.396C54.297,55.142 59.224,58.309 60.656,59.443C57.502,45.021 57.704,39.666 57.359,30.738C57.747,37.377 60.708,57.531 61.645,59.844C66.701,64.053 66.686,62.897 71.281,66.305C71.913,56.342 71.265,49.352 72.982,35.361C72.309,46.071 71.731,58.943 72.424,66.783C75.439,69.161 78.131,72.195 81.562,73.596C80.896,71.649 80.825,61.326 82.992,57.281C81.87,60.916 80.007,72.817 84.941,75.242C88.036,76.763 90.425,78.777 93.785,80.609C89.407,78.668 82.333,74.677 79.074,73.836C77.759,73.391 76.523,73.515 75.375,73.934C75.459,73.877 75.508,73.851 75.705,73.699C75.761,73.625 75.781,73.586 75.775,73.572C75.755,73.52 75.388,73.833 75.25,73.979C73.15,74.788 71.359,76.582 69.977,77.74C71.369,75.426 74.916,73.16 78.02,72.584C77.133,71.659 74.548,69.488 71.406,67.859C66.537,66.358 59.82,68.3 57.367,69.674C48.971,72.927 40.63,78.822 38.273,79.607C39.359,78.646 50.942,71.63 58.566,68.104C61.661,66.747 65.51,66.506 69.262,66.164C65.397,62.768 61.071,60.653 56.979,58.732C37.954,61.444 27.835,66.95 19.949,70.289C38.646,59.167 51.175,59.657 56.1,57.898C42.312,46.825 25.166,51.472 8.994,50.098C28.766,49.449 21.538,49.213 35.049,49.857C37.822,49.99 43.545,50.488 43.545,50.488C40.898,47.393 34.042,41.78 28.27,37.039C27.966,36.79 18.393,37.129 15.221,37.238C18.041,36.766 27.789,36.416 27.506,36.186C23.146,32.634 18.829,29.222 19.004,29.334C22.609,31.17 27.636,35.197 31.672,38.637C31.852,38.79 26.985,25.231 26.514,23.25Z" style="fill-rule:nonzero;"/>
            </g>
        </g>
    </g>
</svg>
