<?xml version="1.0" encoding="UTF-8" standalone="no"?>
<!DOCTYPE svg PUBLIC "-//W3C//DTD SVG 1.1//EN" "http://www.w3.org/Graphics/SVG/1.1/DTD/svg11.dtd">
<svg width="100%" height="100%" viewBox="0 0 118 136" version="1.1" xmlns="http://www.w3.org/2000/svg" xmlns:xlink="http://www.w3.org/1999/xlink" xml:space="preserve" xmlns:serif="http://www.serif.com/" style="fill-rule:evenodd;clip-rule:evenodd;stroke-linejoin:round;stroke-miterlimit:2;">
    <g transform="matrix(1,0,0,1,-2237,-237)">
        <g transform="matrix(2.67586,0,0,1.44961,1680.8,0)">
            <g transform="matrix(0.405797,0,0,-0.749069,203.978,258.638)">
                <path d="M111.831,48.142C119.256,43.873 118.788,38.294 117.317,37.009C115.755,35.646 115.625,32.832 115.667,30.929C115.701,29.389 115.182,26.183 109.986,26.898C107.393,27.364 104.933,28.395 102.782,29.917C100.835,31.252 97.527,36.975 93.742,31.609C89.958,26.234 82.933,31.175 82.176,36.167C81.428,41.151 78.307,48.55 78.307,48.55C78.307,48.55 75.934,54.826 72.609,48.831C69.292,42.843 65.371,43.702 64.13,45.863C62.888,48.031 60.099,53.295 60.056,58.798C60.005,64.3 57.802,66.027 55.54,64.955C53.316,63.907 51.746,67.58 51.099,69.065C49.839,71.956 48.878,74.792 46.961,77.377C44.35,80.987 42.784,85.248 42.435,89.69L42.19,92.414C42.187,92.454 42.185,92.494 42.185,92.534C42.185,93.274 42.795,93.884 43.536,93.884C43.926,93.884 44.297,93.715 44.553,93.422C53.274,83.572 62.905,74.568 73.319,66.529C73.519,66.374 73.766,66.29 74.02,66.29C74.65,66.29 75.168,66.809 75.168,67.439C75.168,67.751 75.041,68.05 74.817,68.266C65.74,77.142 57.314,86.659 49.604,96.745C41.894,106.83 39.407,108.599 33.177,121.313C32.592,122.502 33.063,123.961 34.234,124.582L36.674,125.874C37.029,126.063 37.426,126.162 37.828,126.162C38.907,126.162 39.866,125.451 40.178,124.418C42.715,116.204 46.305,108.354 50.858,101.063C52.799,97.984 55.856,95.769 59.386,94.884C59.8,94.779 60.216,94.679 60.635,94.589C63.255,94.066 65.941,93.956 68.594,94.261C70.526,94.463 72.403,93.499 73.365,91.812C74.256,90.258 75.928,89.307 77.72,89.337C79.745,89.386 81.758,89.657 83.724,90.145C89.669,91.549 92.535,85.561 92.535,85.561C92.535,85.561 94.218,81.275 88.206,77.661C86.965,76.915 85.096,75.627 85.616,73.923C86.462,71.159 91.37,70.326 93.725,70.211C97.731,70.015 107.264,69.029 111.882,64.105C117.827,57.769 109.79,55.388 109.79,55.388C109.79,55.388 104.407,52.419 111.831,48.142Z" style="fill-rule:nonzero;"/>
                <path d="M34.403,57.132C34.464,56.549 34.962,56.101 35.548,56.101C36.168,56.101 36.682,56.602 36.698,57.222C36.871,64.968 37.332,74.801 38.438,85C39.327,81.222 40.964,77.659 43.251,74.523C44.392,72.813 45.325,70.975 46.032,69.046C46.287,68.433 46.543,67.813 46.806,67.2C47.597,65.397 49.179,61.757 52.496,60.507C53.387,60.168 54.343,60.035 55.294,60.116C55.35,59.665 55.378,59.21 55.379,58.755C55.401,57.011 55.615,55.274 56.016,53.576L49.434,55.898C46.364,56.986 43.073,54.095 44.603,51.663L44.646,51.595C45.032,50.985 45.521,50.447 46.092,50.004L57.267,41.253C60.4,38.461 62.264,34.51 62.429,30.316C62.658,23.309 50.735,29.432 50.735,29.432C50.735,29.432 42.818,32.689 46.041,26.362C49.255,20.035 51.866,15.782 52.708,13.197C53.55,10.62 51.339,9.625 49.392,9.719C47.436,9.821 48.124,7.992 48.124,7.992L48.379,5.883C48.511,4.875 48.249,3.854 47.648,3.034C47.019,1.952 45.646,1.53 44.518,2.073C43.912,2.338 43.395,2.772 43.03,3.323L41.967,4.897C41.164,5.823 39.827,6.093 38.727,5.551C36.907,4.829 35.3,6.019 34.764,8.094C34.058,10.85 34.313,20.638 33.862,22.696C33.403,24.763 30.767,25.426 27.391,21.293C24.023,17.16 15.969,18.249 16.751,23.7C17.534,29.16 27.62,45.948 27.986,49.077C28.343,52.215 23.666,53.448 19.796,49.256C15.935,45.072 9.948,45.182 9.803,49.715C9.659,54.248 18.342,64.615 22.16,68.153C25.979,71.691 20.493,74.378 17.049,72.516C13.605,70.645 3.68,75.339 18.444,81.837C22.49,83.568 26.344,85.719 29.942,88.253C30.308,88.52 30.75,88.663 31.203,88.663C32.379,88.663 33.347,87.695 33.347,86.519C33.347,86.495 33.347,86.472 33.346,86.448C33.02,76.663 33.373,66.868 34.403,57.132Z" style="fill-rule:nonzero;"/>
            </g>
        </g>
    </g>
</svg>
