<?xml version="1.0" encoding="UTF-8" standalone="no"?>
<!DOCTYPE svg PUBLIC "-//W3C//DTD SVG 1.1//EN" "http://www.w3.org/Graphics/SVG/1.1/DTD/svg11.dtd">
<svg width="100%" height="100%" viewBox="0 0 117 138" version="1.1" xmlns="http://www.w3.org/2000/svg" xmlns:xlink="http://www.w3.org/1999/xlink" xml:space="preserve" xmlns:serif="http://www.serif.com/" style="fill-rule:evenodd;clip-rule:evenodd;stroke-linejoin:round;stroke-miterlimit:2;">
    <g transform="matrix(1,0,0,1,-2411,-237)">
        <g transform="matrix(2.67586,0,0,1.44961,1680.8,0)">
            <g transform="matrix(0.574178,0,0,-1.05989,266.039,264.123)">
                <path d="M43.793,61.461C45.895,58.883 50.168,56.5 51.496,55.797C54.481,57.149 57.527,57.844 60.559,57.844C76.247,57.844 86.668,39.985 87.106,39.223L87.86,37.91L86.36,37.731C84.676,37.531 82.992,37.43 81.36,37.43C61.883,37.43 52.102,51.797 50.762,53.922C50.125,54.25 48.387,55.187 46.523,56.469C48.484,52.801 49.793,50.164 50.183,49.367C52.379,47.668 72.269,31.445 66.101,6.777L65.82,5.656L64.75,6.094C64.519,6.187 41.914,15.863 48.344,48.571C47.703,49.86 44.828,55.59 40.742,62.751C40.891,60.333 40.645,58.29 40.461,57.2C50.535,36.36 37.07,19.075 36.934,18.899L36.004,17.735L35.277,19.035C25.047,37.328 36.203,54.031 38.391,57.004C38.598,58.032 39.539,63.489 37.461,68.348C35.731,71.223 33.871,74.184 31.93,77.079C32.207,74.544 32.11,72.239 32.074,71.606C37.914,50.907 13.816,43.415 13.574,43.34L12.145,42.911L12.289,44.395C14.602,67.981 26.644,71.793 30.101,72.403C30.183,74.95 29.984,79.922 28.359,82.188C25.359,86.294 22.261,90.036 19.242,92.887L20.617,94.34C24.933,90.262 29.351,84.52 33.418,78.488C35.883,75.016 42.074,72.98 43.453,72.566C48.058,74.258 52.609,75.125 56.988,75.125C74.004,75.125 83.043,62.547 83.422,62.012L84.363,60.676L82.746,60.449C77.816,59.754 73.211,59.399 69.062,59.399C47.5,59.399 43.089,68.742 42.378,70.813C41.23,71.18 39.073,71.953 36.898,73.145C39.46,69.051 41.804,65.024 43.792,61.461L43.793,61.461ZM53.492,54.457C54.355,54.113 55.277,53.731 56.254,53.313L60.988,55.875C58.641,55.875 55.836,55.367 53.492,54.457ZM73.328,45.504L77.992,47.477C77.66,47.801 77.32,48.125 76.969,48.445L71.793,46.235C72.317,45.985 72.828,45.742 73.328,45.504L73.328,45.504ZM70.59,46.805L76.145,49.18C75.805,49.473 75.453,49.766 75.098,50.051L69.274,47.422C69.719,47.215 70.156,47.008 70.59,46.805ZM68.086,47.981L74.211,50.742C73.836,51.024 73.449,51.301 73.059,51.57L66.625,48.664C67.109,48.438 67.598,48.211 68.086,47.981L68.086,47.981ZM65.422,49.219L72.066,52.223C71.57,52.535 71.062,52.832 70.543,53.117L63.758,49.985C64.309,49.731 64.863,49.477 65.422,49.219L65.422,49.219ZM62.555,50.531L69.41,53.696C68.652,54.063 67.871,54.399 67.074,54.68L60.781,51.328C61.367,51.07 61.957,50.805 62.555,50.531ZM59.625,51.848L65.738,55.106C64.746,55.387 63.727,55.598 62.684,55.719L57.422,52.813C58.133,52.504 58.871,52.18 59.625,51.848L59.625,51.848ZM78.758,46.711L74.535,44.926C75.09,44.66 75.637,44.399 76.164,44.145L79.77,45.641C79.445,45.996 79.11,46.352 78.758,46.711L78.758,46.711ZM78.871,42.836L81.274,43.918C81.02,44.223 80.75,44.535 80.477,44.852L77.371,43.563C77.891,43.313 78.391,43.07 78.871,42.836L78.871,42.836ZM80.043,42.266C81.738,41.442 83.11,40.766 84.008,40.328C83.465,41.11 82.77,42.067 81.93,43.117L80.043,42.266ZM39.742,53.856C39.699,53.035 39.648,52.16 39.582,51.235L41.078,49.809C40.727,51.133 40.285,52.485 39.742,53.856L39.742,53.856ZM41.5,48.024L39.484,49.942C39.43,49.246 39.371,48.524 39.309,47.789L41.98,45.047C41.871,46.024 41.711,47.016 41.5,48.024L41.5,48.024ZM42.129,43.469L39.195,46.477C39.145,45.93 39.094,45.379 39.043,44.821L42.199,41.524C42.191,42.164 42.172,42.813 42.129,43.469L42.129,43.469ZM42.18,40.094L38.914,43.508C38.859,42.969 38.809,42.43 38.754,41.887L42.074,38.246C42.125,38.852 42.16,39.469 42.18,40.094L42.18,40.094ZM41.93,36.922L38.617,40.555C38.57,40.086 38.52,39.621 38.469,39.157L41.723,35.528C41.797,35.981 41.867,36.446 41.93,36.922L41.93,36.922ZM41.492,34.282L38.324,37.813C38.277,37.403 38.234,36.992 38.191,36.586L41.254,33.196C41.336,33.555 41.414,33.914 41.492,34.281L41.492,34.282ZM40.957,32.035L38.039,35.262C37.984,34.762 37.926,34.266 37.871,33.778L40.586,30.754C40.719,31.168 40.84,31.598 40.957,32.035L40.957,32.035ZM37.719,32.453C37.656,31.914 37.594,31.383 37.531,30.864L39.754,28.352C39.914,28.774 40.074,29.204 40.23,29.653L37.719,32.453ZM37.375,29.532C37.312,29.024 37.258,28.539 37.199,28.071L38.891,26.27C39.043,26.606 39.191,26.953 39.34,27.313L37.375,29.532ZM38.434,25.297L37.043,26.782C36.699,23.977 36.449,22.035 36.395,21.637C36.953,22.508 37.68,23.743 38.434,25.297L38.434,25.297ZM25.817,62.707L28.082,55.801C28.336,56.18 28.578,56.567 28.805,56.965L26.512,63.86C26.281,63.477 26.051,63.094 25.817,62.707L25.817,62.707ZM29.442,58.211C29.793,58.973 30.09,59.777 30.332,60.617L28.102,66.547C27.809,66.043 27.5,65.524 27.188,64.992L29.442,58.211ZM30.742,62.371C31.153,64.754 31.082,67.426 30.328,70.414C30.309,70.41 29.313,68.653 28.75,67.672L30.742,62.371ZM27.371,54.813L27.352,54.805L25.129,61.578C24.899,61.203 24.668,60.824 24.434,60.445L26.445,53.68C26.77,54.043 27.074,54.422 27.371,54.813L27.371,54.813ZM15.359,46.121C16.019,46.395 16.789,46.738 17.621,47.152L17.098,48.813C16.387,47.703 15.789,46.785 15.359,46.121L15.359,46.121ZM18.523,47.617C18.762,47.746 19.008,47.879 19.254,48.016L18.441,50.899C18.223,50.559 18.012,50.227 17.805,49.906L18.523,47.617ZM20.144,48.535C20.437,48.715 20.734,48.895 21.031,49.09L19.851,53.121C19.617,52.75 19.383,52.383 19.156,52.027L20.144,48.535ZM21.902,49.676C22.172,49.863 22.441,50.059 22.711,50.262L21.211,55.27C20.992,54.926 20.777,54.582 20.566,54.246L21.902,49.676ZM23.558,50.922C23.73,51.063 23.902,51.203 24.07,51.348L22.426,57.199C22.258,56.926 22.09,56.66 21.922,56.391L23.558,50.922ZM24.898,52.09C25.156,52.332 25.406,52.574 25.656,52.832L23.73,59.309C23.535,58.989 23.336,58.672 23.14,58.356L24.898,52.09ZM75.222,64.059L77.285,65.5C76.925,65.805 76.546,66.11 76.144,66.422L73.328,64.571C73.988,64.391 74.617,64.223 75.222,64.059L75.222,64.059ZM72.039,64.918L75.304,67.063C74.851,67.391 74.371,67.719 73.875,68.043L70,65.465C70.695,65.274 71.375,65.094 72.039,64.918L72.039,64.918ZM68.707,65.801L72.937,68.622C72.425,68.93 71.894,69.235 71.339,69.528L66.754,66.317C67.414,66.141 68.066,65.969 68.707,65.801L68.707,65.801ZM65.484,66.645L70.324,70.036C69.886,70.247 69.445,70.454 68.984,70.653L63.832,67.075C64.386,66.93 64.937,66.789 65.484,66.645ZM62.554,67.403L67.882,71.102C67.265,71.336 66.632,71.559 65.98,71.762L60.683,67.875C61.308,67.719 61.929,67.563 62.554,67.403ZM59.421,68.196L64.753,72.106C64.019,72.301 63.261,72.469 62.484,72.614L57.32,68.719C58.015,68.543 58.718,68.368 59.421,68.196L59.421,68.196ZM56.062,69.024L61.117,72.836C60.152,72.969 59.148,73.047 58.117,73.086L53.851,69.555C54.582,69.379 55.32,69.204 56.062,69.024L56.062,69.024ZM52.636,69.836L56.597,73.114C55.371,73.098 54.132,73.012 52.882,72.856L49.957,70.45C50.82,70.258 51.718,70.055 52.636,69.836L52.636,69.836ZM48.707,70.727L50.949,72.571C49.289,72.27 47.609,71.848 45.918,71.309C46.796,71.133 47.726,70.938 48.707,70.727L48.707,70.727ZM80.25,62.68C79.679,63.297 78.949,64.032 78.066,64.821L76.484,63.711M50.957,46.086C51.371,45.125 51.801,44.094 52.25,42.989L54.734,42.215C53.312,43.844 51.992,45.145 50.957,46.086L50.957,46.086ZM64.598,9.313C64.883,10.782 65.075,12.223 65.176,13.626L62.793,14.516C63.586,12.255 64.215,10.438 64.598,9.313L64.598,9.313ZM62.364,15.747L65.235,14.673C65.258,15.223 65.27,15.77 65.266,16.309L61.645,17.794C61.895,17.079 62.133,16.403 62.364,15.747ZM61.196,19.055L65.25,17.395C65.227,18.059 65.188,18.716 65.125,19.356L60.414,21.247C60.684,20.501 60.946,19.766 61.196,19.055L61.196,19.055ZM59.965,22.505L64.996,20.489C64.914,21.134 64.82,21.77 64.707,22.395L59.219,24.575C59.473,23.876 59.723,23.184 59.965,22.505L59.965,22.505ZM58.766,25.833L64.469,23.567C64.348,24.118 64.219,24.661 64.078,25.2L58.125,27.595C58.34,27.005 58.555,26.415 58.766,25.833ZM57.664,28.86L63.731,26.419C63.524,27.098 63.305,27.766 63.067,28.415L56.938,30.821C57.184,30.165 57.426,29.508 57.664,28.86ZM56.473,32.075L62.578,29.68C62.231,30.536 61.86,31.36 61.469,32.165L55.645,34.286C55.922,33.552 56.199,32.813 56.473,32.075L56.473,32.075ZM55.18,35.516L60.805,33.469C60.34,34.344 59.86,35.18 59.36,35.981L54.32,37.762C54.606,37.024 54.891,36.274 55.18,35.516L55.18,35.516ZM53.844,38.993L58.481,37.356C57.637,38.614 56.778,39.759 55.93,40.805L52.738,41.798C53.098,40.891 53.469,39.954 53.844,38.993L53.844,38.993Z" style="fill-rule:nonzero;"/>
            </g>
        </g>
    </g>
</svg>
