<?xml version="1.0" encoding="UTF-8"?> <svg xmlns="http://www.w3.org/2000/svg" width="263" height="55" viewBox="0 0 263 55" fill="none"> <path d="M231.65 14.7939H225.684V39.7089H232.033C236.126 39.7089 246.282 39.2359 246.282 27.4629C246.282 15.1619 235.746 14.7939 231.65 14.7939Z" fill="#D19862"></path> <path d="M233.95 0H166.475C161.096 0 158.998 2.165 158.998 7.716V46.79C158.998 52.339 161.096 54.504 166.475 54.504H234.165C260.869 54.504 262.298 33.367 262.298 27.547C262.297 16.939 258.228 0 233.95 0ZM189.853 44.495H179.896C172.096 44.495 169.074 41.379 169.074 33.334V11.548C169.074 10.225 170.113 9.154 171.396 9.154C172.678 9.154 173.715 10.225 173.715 11.548V34.153C173.715 37.878 175.659 39.708 179.14 39.708H189.853C191.136 39.708 192.175 40.777 192.175 42.101C192.175 43.422 191.136 44.495 189.853 44.495ZM215.056 14.795H202.67C200.059 14.795 198.152 16.469 198.152 19.519V24.431H210.432C211.714 24.431 212.753 25.503 212.753 26.825C212.753 28.148 211.714 29.219 210.432 29.219H198.152V35.186C198.152 38.059 199.705 39.709 202.525 39.709H213.898C215.18 39.709 216.218 40.781 216.218 42.102C216.218 43.422 215.18 44.495 213.898 44.495H204.321C196.53 44.495 193.51 41.702 193.51 33.658V21.172C193.51 12.913 196.534 10.01 204.333 10.01H215.056C216.339 10.01 217.378 11.082 217.378 12.403C217.378 13.723 216.339 14.795 215.056 14.795ZM233.124 44.495H224.26C221.934 44.495 221.036 43.571 221.036 41.171V13.333C221.036 10.933 221.934 10.009 224.26 10.009H232.989C248.352 10.009 250.926 20.727 250.926 27.438C250.926 31.12 250.023 44.495 233.124 44.495Z" fill="#D19862"></path> <path d="M125.131 10.0088H134.759C150.122 10.0088 152.697 20.7268 152.697 27.4378C152.697 31.1198 151.795 44.4938 134.897 44.4938H125.131C123.848 44.4938 122.807 43.4208 122.807 42.0988V12.4038C122.807 11.0818 123.846 10.0088 125.131 10.0088ZM133.802 39.7098C137.896 39.7098 148.053 39.2358 148.053 27.4628C148.053 15.1638 137.515 14.7978 133.42 14.7978H127.455V39.7108H133.802V39.7098Z" fill="#D19862"></path> <path d="M119.003 27.3944C119.003 37.3234 111.355 45.2104 101.461 45.2104C91.5655 45.2104 83.918 37.3234 83.918 27.3944C83.918 17.4684 91.5212 9.44141 101.461 9.44141C111.401 9.44141 119.003 17.4684 119.003 27.3944ZM114.356 27.2484C114.356 19.9924 108.85 14.0504 101.461 14.0504C94.0692 14.0504 88.5627 19.9914 88.5627 27.2484C88.5627 34.6084 94.1203 40.6014 101.408 40.6014C108.903 40.6014 114.356 34.5024 114.356 27.2484Z" fill="#D19862"></path> <path d="M81.6434 27.3944C81.6434 37.3234 73.9959 45.2104 64.1001 45.2104C54.2061 45.2104 46.5586 37.3234 46.5586 27.3944C46.5586 17.4684 54.1601 9.44141 64.1001 9.44141C74.0402 9.44141 81.6434 17.4684 81.6434 27.3944ZM76.9987 27.2484C76.9987 19.9924 71.4921 14.0504 64.1036 14.0504C56.7116 14.0504 51.205 19.9914 51.205 27.2484C51.205 34.6084 56.7627 40.6014 64.0508 40.6014C71.5432 40.6014 76.9987 34.5024 76.9987 27.2484Z" fill="#D19862"></path> <path d="M33.4461 44.4447H33.3831C30.7277 44.4197 28.5527 42.6697 27.9668 40.0967L22.8452 17.9957L17.7253 40.1047C17.7219 40.1207 17.7168 40.1357 17.7134 40.1507C17.0713 42.6957 14.8963 44.4207 12.3005 44.4447C9.67247 44.4707 7.44294 42.7587 6.74803 40.1917C6.74292 40.1747 6.73951 40.1547 6.7344 40.1357L0.0713819 12.9727C-0.242011 11.6987 0.505705 10.4027 1.74225 10.0827C2.97709 9.75873 4.23236 10.5297 4.54405 11.8057L11.1986 38.9327C11.3961 39.6197 12.0042 39.6927 12.2597 39.6857C12.5577 39.6847 13.0772 39.5857 13.2424 38.9687L18.3896 16.7537C18.8375 14.4987 20.6668 12.9367 22.8657 12.9367H22.9031C25.0901 12.9537 26.887 14.5257 27.306 16.7707L32.4548 38.9997C32.5911 39.5927 33.1225 39.6847 33.4274 39.6857C33.6352 39.6857 34.3199 39.6417 34.4885 38.9637L41.1498 11.8057C41.4632 10.5297 42.7168 9.76073 43.9516 10.0827C45.1881 10.4057 45.9359 11.6987 45.6225 12.9727L38.9594 40.1337C38.319 42.7207 36.1065 44.4447 33.4461 44.4447Z" fill="#D19862"></path> </svg> 