<?xml version="1.0" encoding="UTF-8" standalone="no"?>
<!DOCTYPE svg PUBLIC "-//W3C//DTD SVG 1.1//EN" "http://www.w3.org/Graphics/SVG/1.1/DTD/svg11.dtd">
<svg width="100%" height="100%" viewBox="0 0 873 798" version="1.1" xmlns="http://www.w3.org/2000/svg" xmlns:xlink="http://www.w3.org/1999/xlink" xml:space="preserve" xmlns:serif="http://www.serif.com/" style="fill-rule:evenodd;clip-rule:evenodd;stroke-linejoin:round;stroke-miterlimit:2;">
    <g id="Монтажная-область1" serif:id="Монтажная область1" transform="matrix(0.80787,0,0,0.738426,0,0)">
        <rect x="0" y="0" width="1080" height="1080" style="fill:none;"/>
        <clipPath id="_clip1">
            <rect x="0" y="0" width="1080" height="1080"/>
        </clipPath>
        <g clip-path="url(#_clip1)">
            <g transform="matrix(-12.6679,0,0,13.8592,1170.08,-152.967)">
                <path d="M84.957,24.852C85.441,29.059 82.617,33.844 79.758,36.739C79.887,37.575 79.68,38.622 79.566,39.247C78.547,45.028 74.621,48.688 69.535,51.2C69.418,52.602 68.977,53.622 68.176,54.813C65.766,58.391 61.488,59.915 57.426,60.637C56.86,64.005 52.895,65.532 49.945,66.13C50.285,66.559 50.594,67.024 50.914,67.485C55.223,73.719 64.226,73.313 70.344,70.735C75.922,68.383 80.813,64.188 84.293,59.262C84.973,58.301 87.934,57.555 86.703,64.321C86.215,67 86.063,68.438 84.434,70.606C85.375,70.297 86.274,69.918 87.164,69.461C87.696,69.184 88.582,69.512 88.504,70.231C88.035,74.477 85.563,77.614 82.235,79.75C82.883,79.672 83.516,79.571 84.133,79.434C84.961,79.254 85.993,80.219 85.364,81.036C83.754,83.125 81.563,84.551 79.203,85.668C73.051,88.575 64.726,90.711 58.562,86.84C54.887,88.825 50.269,89.27 46.191,88.782C37.152,87.696 27.839,83.422 22.031,76.282C15.086,67.77 17.067,61.966 14.731,57.848C13.512,55.691 11.403,56.074 9.36,55.676C8.981,55.828 8.59,55.937 8.188,56.012C7.61,56.117 7.367,55.301 7.949,55.117C12.75,53.586 10.27,48.66 13.027,45.051C15.399,41.938 19.668,41.008 23.129,42.871C26.071,44.453 26.891,47.68 28.688,50.235C30.848,53.289 34.79,52.739 37.399,50.571C42.102,46.688 47.352,35.579 50.797,30.833C60.32,17.708 78.328,18.923 90.496,11.231C91.508,10.594 92.515,11.649 92.348,12.656C91.586,17.207 88.187,21.703 84.957,24.851L84.957,24.852Z"/>
            </g>
        </g>
    </g>
</svg>
