<?xml version="1.0" encoding="UTF-8" standalone="no"?>
<!DOCTYPE svg PUBLIC "-//W3C//DTD SVG 1.1//EN" "http://www.w3.org/Graphics/SVG/1.1/DTD/svg11.dtd">
<svg width="100%" height="100%" viewBox="0 0 1080 1057" version="1.1" xmlns="http://www.w3.org/2000/svg" xmlns:xlink="http://www.w3.org/1999/xlink" xml:space="preserve" xmlns:serif="http://www.serif.com/" style="fill-rule:evenodd;clip-rule:evenodd;stroke-linejoin:round;stroke-miterlimit:2;">
    <g id="Монтажная-область1" serif:id="Монтажная область1" transform="matrix(1,0,0,0.978255,0,0)">
        <rect x="0" y="0" width="1080" height="1080" style="fill:none;"/>
        <clipPath id="_clip1">
            <rect x="0" y="0" width="1080" height="1080"/>
        </clipPath>
        <g clip-path="url(#_clip1)">
            <g transform="matrix(11.7479,0,0,12.0091,-107.374,-172.213)">
                <g transform="matrix(1,0,0,1,5,10)">
                    <path d="M33.426,14.832L33.434,14.832L33.43,14.828L33.422,14.828L33.426,14.832Z" style="fill-rule:nonzero;"/>
                </g>
                <g transform="matrix(1,0,0,1,5,10)">
                    <path d="M33.441,14.82L33.406,14.8L33.429,14.828L33.441,14.82Z" style="fill-rule:nonzero;"/>
                </g>
                <g transform="matrix(1,0,0,1,5,10)">
                    <path d="M12.297,34.352C11.574,34.918 10.969,35.594 10.586,36.438C11.731,36.411 12.914,36.278 14.059,36.36C13.227,37.133 12.664,38.028 12.11,39.008C13.387,39.012 14.528,38.821 15.68,38.239C15.387,38.688 14.18,39.774 14.778,40.297C15.176,40.567 15.824,40.493 16.266,40.36C17.219,40.075 18.074,39.039 19.106,39.551C19.805,39.903 20.211,40.688 20.418,41.411C21.278,40.621 23.653,40.356 23.356,42.09C23.18,42.739 22.414,43.329 21.985,43.84C21.387,44.547 20.723,45.36 20.391,46.227C20.52,47.457 21.516,50.407 22.469,51.164C23.336,51.856 26.352,53.086 27.473,53.344C30.008,54.121 33.016,52.051 35.094,50.739C33.91,50.551 32.356,50.696 31.359,49.934C31.012,49.668 30.774,49.289 30.43,49.028C29.387,48.864 28.887,49.184 27.902,49.395C25.953,49.817 23.906,48.864 22.57,47.477C24.133,48.391 25.942,49.348 27.809,48.844C28.789,48.578 29.11,48.223 30.211,48.258C29.379,46.696 28.801,45.723 27.02,45.176C26.242,44.938 25.461,44.84 24.652,44.914C25.82,44.504 27.02,44.528 28.149,45.063C30.32,46.09 30.645,48.52 32.024,49.235C33.434,49.84 35.098,49.477 36.5,50.188C36.699,50.149 36.899,50.114 37.102,50.094C35.93,49.008 34.414,48.383 33.356,47.172C32.313,45.938 32.856,44.039 31.852,42.809C31.317,42.149 30.434,41.965 29.754,41.496C28.567,40.621 27.383,39.735 26.223,38.821C27.52,39.465 28.735,40.25 29.969,41C30.727,41.422 31.543,41.684 32.246,42.207C31.836,40.993 31.09,40.024 30.281,39.043C32.875,41.11 32.66,41.5 33.406,44.586C33.531,45.11 33.625,45.711 33.867,46.192C34.582,47.321 35.895,47.918 36.957,48.672C38.836,50.305 41.219,51.008 43.57,51.68C42.723,50.348 42.402,48.625 41.348,47.442C39.649,45.969 36.414,46.621 35.238,44.391C34.496,42.985 35.113,41.114 34.059,39.84C33.922,39.68 33.746,39.629 33.664,39.426C33.762,39.414 33.828,39.496 33.902,39.555C35.899,41.094 34.422,44.02 36.969,45.106C38.242,45.618 39.68,45.524 40.977,45.977C40.09,42.16 37.774,40.434 34.699,38.387C32.863,37.172 31.004,35.438 28.645,36.055C27.344,36.364 25.66,37.114 24.391,36.344C23.82,36 23.512,35.637 22.793,35.821C22.035,36.012 21.375,36.422 20.578,36.524C18.996,36.649 17.395,36.305 15.863,36.887C17.903,35.739 18.797,36.063 20.895,35.747C19.547,35.082 18.758,33.954 17.609,33.051C16.77,32.391 15.805,31.938 14.914,31.356C16.051,31.707 17.215,32.079 18.207,32.758C19.109,33.375 19.969,34.805 21.024,35.063C21.875,35.27 22.742,34.653 23.637,34.809C23.984,34.872 24.274,35.106 24.559,35.301C25.57,35.989 26.547,35.5 27.617,35.321C26.383,34.457 26.727,33.516 25.957,32.817C25.641,32.532 25.219,32.508 24.82,32.454C23.395,32.254 22.613,31.329 22.035,30.075C22.731,30.938 23.504,31.723 24.668,31.848C25.352,31.918 26.086,31.825 26.59,32.407C27.324,33.262 27.219,34.704 28.676,34.848C29.234,34.903 29.793,34.809 30.355,34.871C32.059,35.036 33.477,36.176 34.84,37.086C33.793,34.578 34.328,32.594 31.414,31.391C29.461,30.723 27.902,29.926 26.762,28.106C23.559,27.457 22.195,24.719 23.781,21.817C23.02,24.297 23.668,26.614 26.383,27.328C25.203,25.465 25.102,23.559 26.699,21.899C26.141,23.164 25.676,24.367 26.199,25.731C26.59,26.75 27.699,28.344 28.543,29.043C29.457,29.785 30.625,30.09 31.742,30.395C31.172,29.399 30.586,28.246 30.887,27.067C31.242,25.668 32.922,25.375 33.293,24.051C33.891,21.934 30.832,21.242 33.629,17.754C33.141,18.742 32.551,19.985 32.922,21.102C33.465,22.262 34.32,23.489 33.645,24.801C33.043,26.078 31.133,26.735 31.676,28.399C32.277,29.993 33.715,31.129 34.438,32.668C35.07,33.903 35.133,35.649 36.004,36.68C38.34,39.043 41.395,40.407 42.492,43.785C42.949,41.875 44.945,41.039 44.773,38.926C44.742,38.465 44.637,38.016 44.422,37.602C43.887,36.571 42.773,35.985 42.25,34.938C41.797,34.028 42.074,33.012 41.453,32.141C41.082,31.621 40.484,31.278 39.879,31.098C37.957,30.531 36.301,31.422 35.066,29.164C34.73,28.551 34.535,27.985 34.535,27.285C34.902,28.348 35.477,29.606 36.543,30.137C37.703,30.715 39.367,30.262 40.727,30.602C40.34,30.071 40.051,29.52 40.152,28.836C40.23,28.305 40.535,27.844 40.754,27.364C41.281,26.207 40.508,25.094 40.238,23.973C40.785,24.797 41.535,25.903 41.344,26.95C41.117,28.168 40.078,28.606 40.973,29.938C41.406,30.582 42.02,31.129 42.504,31.743C42.859,31.219 43.25,30.844 43.723,30.422C43.891,29.66 43.633,28.918 43.773,28.168C43.871,27.512 44.355,27.032 44.652,26.473C44.992,25.731 44.617,24.879 44.336,24.18C44.777,24.731 45.203,25.426 45.137,26.168C45.059,26.996 44.355,27.504 44.195,28.282C44.07,28.879 44.359,29.618 44.293,30.293C44.859,30.188 45.371,30.071 45.902,29.836C45.301,30.321 44.918,30.383 44.332,30.743C43.625,31.176 43.125,32.239 43.039,33.036C42.797,34.782 44.461,35.547 45.371,36.778C46.008,35.489 47,35.125 47.937,34.192C47.68,33.153 47.457,32.125 47.594,31.043C47.711,30.11 48.152,29.325 48.394,28.434C49.195,25.122 45.586,23.383 43.168,22.11C41.406,21.122 40.105,19.821 39.519,17.86C40.934,20.333 42.512,21.524 45.109,22.61C43.93,20.993 43.48,18.735 43.051,16.809C43.461,17.438 43.707,18.153 43.945,18.86C44.656,20.958 45.324,22.325 47.187,23.625C48.551,24.485 49.605,25.778 49.477,27.477C50.602,26.161 52.547,24.684 52.383,22.77C52.234,21.024 50.234,19.946 49.383,18.352C48.769,17.329 48.695,16.125 48.332,15.016C48.187,14.668 47.867,14.387 47.656,14.083C46.738,12.747 47.094,11.551 47.871,10.282C47.172,12.098 47.152,13.231 48.656,14.618C49.004,12.809 50.492,11.813 51.598,10.469C51.203,11.426 50.562,12.051 49.957,12.864C49.047,14.083 48.844,15.379 49.437,16.793C50.215,18.918 52.293,19.946 53,22.102C53.059,20.977 53.082,19.727 53.988,18.911C54.273,18.657 54.59,18.43 54.867,18.168C55.684,17.395 55.926,16.422 55.996,15.336C56.062,14.293 55.996,13.372 56.711,12.52C56.246,13.645 56.414,14.84 56.41,16.028C57.523,15.508 58.805,14.965 59.246,13.704C59.66,12.422 58.973,11.079 59.488,9.805C59.496,11.669 60.426,13.618 58.914,15.165C58.223,15.872 56.976,16.145 56.535,16.715C56.203,17.137 56.078,17.743 55.789,18.212C57.699,18.919 60.062,18.301 61.73,17.247C59.945,18.844 57.527,19.473 55.211,18.798C52.961,19.923 54.281,22.282 53.324,24.36C52.176,26.962 49.789,27.813 49.242,31.04C48.824,32.942 50.019,34.532 51.062,35.997C51.828,37.118 52.574,38.27 53.148,39.505C53.586,37.723 54.152,36.497 55.559,35.27C56.219,34.692 56.805,34.161 57.289,33.415C57.086,31.321 55.074,29.735 54.969,27.641C54.937,26.547 55.676,26.008 56.109,25.122C56.504,24.317 56.586,23.216 56.496,22.337C56.863,23.219 56.883,24.442 56.508,25.325C56.016,26.485 55.23,26.973 55.801,28.399C56.391,29.88 57.617,31.044 58.02,32.618C60.07,29.762 59.043,27.247 60.305,24.372C60.738,23.387 61.469,22.473 62.152,21.645C61.266,23.262 60.414,24.512 60.242,26.419C61.508,24.821 63.043,24.766 64.672,23.833C65.684,23.251 66.524,22.356 67.211,21.426C64.774,26.598 60.215,23.712 60.258,29.258C61.918,27.126 64.629,26.844 66.684,25.266C65.258,26.852 63.051,27.231 61.485,28.641C60.36,29.657 60,30.977 59.289,32.258C58.762,33.208 58.133,34.137 57.496,35.016C58.891,34.669 61.016,34.477 62.129,33.59C63.375,32.387 64.082,30.692 64.168,28.969C64.524,31.153 63.863,31.649 63.082,33.501C63.496,33.418 63.922,33.387 64.332,33.293C65.613,33.004 66.418,31.887 67.047,30.813C66.672,31.997 65.965,33.172 64.828,33.754C64.16,34.094 63.395,34.2 62.695,34.469C61.703,34.852 60.781,35.372 59.762,35.708C58.945,35.977 56.879,36.266 56.305,36.704C54.211,38.907 54.832,42.321 54.195,45.067C55.375,44.075 58.68,42.184 58.848,40.669C58.902,40.169 58.789,39.676 58.949,39.18C59.141,38.59 59.691,38.442 59.793,37.919L59.867,37.895C59.969,38.251 59.613,38.743 59.555,39.102C59.488,39.504 59.543,39.915 59.606,40.313C60.481,39.668 61.172,39.59 62.004,39.094C63.281,38.336 63.707,36.848 64.621,35.766C63.742,37.567 63.457,39.176 61.449,40.086C60.773,40.391 60.262,40.641 59.762,41.211C60.606,41.133 62,42.504 62.805,42.032C63.141,41.747 63.574,40.621 63.918,40.168C64.324,39.629 64.887,39.223 65.32,38.7L65.34,38.727C65.035,39.371 64.543,39.84 64.188,40.442C63.727,41.172 63.606,42.266 62.731,42.629C61.774,42.957 60.813,41.91 59.789,42.063C58.918,42.477 58.328,43.375 57.551,43.95C56.531,44.793 55.445,45.496 54.52,46.453C53.024,48.098 52.156,50.684 52.356,52.899L52.41,52.969C53.117,52.785 53.371,51.895 53.82,51.379C54.817,50.051 56.086,48.95 57.488,48.067C59.024,47.008 60.797,46.438 62.469,45.661C63.856,44.887 68.16,41.75 68.141,40.176C67.473,37.235 69.883,35.395 69.969,32.418C69.989,30.399 68.934,30.082 67.879,28.711C66.543,26.965 68.227,25.36 69.403,24.145C70.145,23.243 70.684,21.95 70.555,20.766C70.871,21.793 70.66,22.883 70.172,23.825C69.574,24.965 67.602,26.192 68.102,27.661C68.297,28.227 69.246,28.907 69.66,29.371C70.176,29.946 70.649,30.633 70.946,31.348C71.235,30.614 71.578,29.829 71.594,29.028C71.606,28.332 71.309,27.692 71.164,27.02C70.735,25.243 71.696,23.36 73.473,22.825C71.926,23.922 71.121,25.911 72.055,27.676C72.778,26.731 73.903,26.29 74.75,25.493C75.762,24.469 76.086,22.852 75.5,21.532C76.067,22.333 76.262,23.133 76.098,24.106C75.656,26.711 73.832,26.489 72.738,28.262C72.266,29.028 72.446,29.774 72.211,30.586C71.403,33.375 69.953,36.129 69.992,39.098C71.856,37.739 73.559,35.571 74.344,33.407C74.664,32.524 74.809,31.571 75.231,30.727C76.137,28.907 77.395,27.2 77.809,25.172C78.086,26.563 77.27,27.828 76.832,29.094C78.27,28.469 79.641,27.246 79.766,25.594C80.063,27.032 79.324,28.375 78.129,29.161C76.297,30.551 75.914,30.637 75.551,33.004C76.086,32.938 76.735,32.899 77.219,32.649C77.688,32.407 78.028,31.891 78.387,31.516C79.438,30.414 80.969,29.504 82.496,29.305C83.645,29.157 84.754,29.422 85.899,29.45C84.926,29.715 83.895,29.559 82.918,29.825C81.145,30.235 79.551,31.36 78.578,32.899C79.211,33.149 79.899,33.5 80.586,33.555C81.094,33.594 81.598,33.399 82.074,33.25C83.274,32.879 84.457,33.106 85.649,33.43C85.344,32.922 85.016,32.426 84.59,32.008C85.578,32.336 86.598,32.602 87.649,32.598C87.321,31.719 86.887,31.211 86.129,30.672C87.141,30.633 88.145,30.641 89.09,30.227C88.489,29.571 87.723,29.075 86.899,28.746C87.485,28.461 88,28.219 88.43,27.703C87.801,27.184 87.016,27.036 86.215,27.016C87.196,25.731 86.922,24.856 85.215,25.399C84.149,25.746 83.762,26.555 83.086,27.352C83.328,26.578 83.563,25.805 83.668,24.996C83.203,25.332 82.52,25.848 81.926,25.547C81.559,24.922 82.828,24.352 83.239,24.098C82.645,23.817 82.055,23.598 81.414,23.453C81.953,23.078 82.606,22.7 82.992,22.153C82.492,21.711 81.914,21.551 81.266,21.485C81.594,20.922 81.91,20.352 82.063,19.711C80.516,19.653 79.301,20.317 78.055,21.168C78.395,20.571 79.242,19.211 78.528,18.637C77.891,18.461 77.18,18.914 76.766,19.371C76.957,18.293 77.223,16.102 75.989,15.563C74.836,15.664 74.547,17.422 74.504,18.352C74.059,17.977 73.098,17.086 72.528,17.645C72.18,18.145 72.602,19.399 72.649,19.985C72.024,19.223 71.164,18.789 70.305,19.489C70.391,19.235 70.559,18.875 70.461,18.614C70.309,18.504 70.199,18.5 70.016,18.532C69.531,18.61 68.977,18.828 68.613,19.16C69.403,17.512 67.949,17.215 66.867,18.196C67.168,17.004 69.918,16.836 69.473,15.371C68.723,14.168 66.852,13.797 65.578,14.328C66.18,13.43 67.028,11.946 66.817,10.821C66.782,10.637 66.699,10.481 66.539,10.379C65.407,9.907 64.184,10.758 63.321,11.438C63.235,9.227 61.848,10.043 61.137,11.426C60.981,10.325 62.285,9.043 61.504,8.043C59.817,6.829 58.172,8.715 56.922,9.688C57.918,8.387 57.539,5.059 55.645,7.407C55.668,6.379 55.731,4.528 54.387,4.34C53.024,4.477 51.957,5.715 52.047,7.086C51.032,4.926 48.543,6.735 49.246,8.622C48.215,8.079 45.379,6.09 45.5,8.52C44.727,8.274 43.407,7.836 43.11,8.922C43.2,9.129 43.289,9.34 43.391,9.543C43.024,9.442 42.887,9.442 42.543,9.625C42.184,9.817 41.75,10.114 41.629,10.52C41.442,11.266 42.207,11.782 42.739,12.149C41.293,11.547 39.27,11.914 39.348,13.829C39.004,13.407 38.621,12.606 38.032,12.536C37.114,12.493 37.364,13.223 37.512,13.821C37.18,13.536 36.758,13.231 36.297,13.266C35.622,13.36 35.286,14.219 35.313,14.829C35.414,15.711 36.317,16.196 37.102,16.372C36.192,16.336 35.157,16.493 34.766,17.446C34.708,16.485 33.95,15.106 32.899,16.012C32.665,15.512 32.254,14.551 31.559,14.801C30.782,15.34 30.52,16.723 31.18,17.457C28.665,16.594 28.961,18.735 29.415,20.426C28.833,19.848 28.305,19.446 27.501,19.235C27.036,19.372 26.774,19.59 26.465,19.95C26.418,18.919 25.965,17.497 24.719,17.501C23.829,17.774 23.672,19.294 23.379,20.063C22.692,19.313 21.356,18.708 20.45,19.415C19.633,20.352 20.836,21.735 21.458,22.45C20.602,22.266 18.274,22.954 19.153,24.133C19.645,24.704 20.29,24.954 20.633,25.68C20.157,25.676 18.813,26.067 19.27,26.731C20.079,26.856 20.583,27.59 20.989,28.247C20.547,28.079 20.118,27.922 19.649,27.864C18.614,28.251 18.813,29.524 18.84,30.407C18.379,29.708 17.469,28.813 16.669,29.594C16.372,28.926 15.614,27.813 14.77,28.044C14.204,28.606 14.669,29.536 14.672,30.231C13.911,29.493 13.024,28.559 11.876,28.567C10.922,28.481 10.364,29.567 11.126,30.215C11.751,30.79 12.395,30.696 12.934,31.512C11.735,31.133 10.669,31.239 9.579,31.879C9.715,32.188 9.876,32.411 10.122,32.641C9.606,32.887 8.704,33.454 8.501,34.024C8.465,34.122 8.485,34.149 8.52,34.243C9.637,35.043 11.106,34.282 12.356,34.34L12.297,34.352Z" style="fill-rule:nonzero;"/>
                </g>
                <g transform="matrix(1,0,0,1,5,10)">
                    <path d="M34.676,58.711C37.117,59.551 39.895,58.848 42.344,59.766C44.067,60.305 45.598,61.168 46.992,62.309C47.297,59.578 46.285,56.606 43.871,55.117C42.75,54.453 37.828,51.824 36.746,51.941C36.113,52.156 35.567,52.539 35.004,52.891C33.098,54.086 31.801,54.86 29.477,55.086C30.266,55.453 31.02,55.832 31.711,56.371C32.649,57.102 33.575,58.277 34.68,58.711L34.676,58.711Z" style="fill-rule:nonzero;"/>
                </g>
                <g transform="matrix(1,0,0,1,5,10)">
                    <path d="M38.523,39.812C38.039,39.453 37.039,38.671 36.5,38.539C38.91,40.289 40.586,41.699 41.554,44.632C41.777,45.312 42.007,46.507 42.347,47.078C41.894,43.898 41.191,41.804 38.527,39.812L38.523,39.812Z" style="fill-rule:nonzero;"/>
                </g>
                <g transform="matrix(1,0,0,1,5,10)">
                    <path d="M51.172,39.766C50.883,39.215 48.84,35.653 48.563,35.551C47.746,35.766 46.953,36.184 46.512,36.934C45.918,37.946 46.356,39.274 46.078,40.395C45.234,42.903 43.203,44.813 44.156,47.641C45,50.582 47.086,53.313 49.34,55.325C49.652,54.329 49.77,53.247 49.766,52.204C49.672,50.379 49.77,48.512 50.746,46.907C52.438,44.27 52.75,42.575 51.176,39.762L51.172,39.766Z" style="fill-rule:nonzero;"/>
                </g>
                <g transform="matrix(1,0,0,1,5,10)">
                    <path d="M33.852,52.539C32.368,53.359 30.809,54.07 29.118,54.266L29.141,54.27C30.973,54.336 32.399,53.652 33.848,52.609L33.875,52.555L33.852,52.543L33.852,52.539Z" style="fill-rule:nonzero;"/>
                </g>
                <g transform="matrix(1,0,0,1,5,10)">
                    <path d="M86.652,35.734C86.492,35.332 86.355,34.968 86.066,34.636C85.59,34.578 85.199,34.558 84.734,34.714L84.691,34.679C84.695,34.546 84.703,34.418 84.718,34.289C83.508,33.734 82.468,33.898 81.23,34.289C81.422,34.566 81.617,34.839 81.8,35.125C80.734,34.539 78.882,33.574 77.632,33.769C76.761,33.921 75.734,34.128 74.984,34.597C73.769,37.437 71.75,39.753 69.457,41.792C67.863,43.316 66.218,44.839 64.48,46.195C66.16,46.285 68.203,47.23 69.703,46.238C70.414,45.808 71.043,45.234 71.711,44.738C72.925,43.777 74.465,43.066 75.336,41.749C75.945,40.218 75.644,38.706 76.933,37.488C76.457,38.39 76.277,39.093 76.328,40.113C78.293,39.332 79.656,39.148 81.004,37.351C80.269,38.902 79.176,39.589 77.625,40.21C77.246,40.363 76.82,40.507 76.558,40.843C76.23,41.257 76.136,41.941 75.926,42.429C76.586,42.507 77.281,42.636 77.941,42.617C80.324,42.546 81.004,40.773 83.078,40.347C84.597,40.121 85.847,40.699 87.008,41.648C84.679,40.371 82.386,40.468 80.613,42.609C81.363,42.55 82.094,42.48 82.82,42.726C84.203,43.207 85.23,45.035 86.894,44.457C87.168,44.148 86.82,43.726 86.699,43.418C87.754,43.773 88.75,43.933 89.871,43.89C89.699,43.296 89.426,42.738 89.211,42.16C90.297,42.699 91.347,43.113 92.586,42.984C92.297,42.445 92.011,41.902 91.703,41.374C92.718,41.863 93.629,42.328 94.773,41.906C94.074,40.664 92.836,40.066 91.672,39.335C92.215,39.312 92.789,39.242 93.304,39.058C93.812,38.574 94.144,37.683 93.484,37.179C92.371,36.25 90.765,36.523 89.449,36.742C89.703,36.281 90.55,35.359 89.91,34.941C88.867,34.472 87.383,34.843 86.66,35.738L86.652,35.734Z" style="fill-rule:nonzero;"/>
                </g>
                <g transform="matrix(1,0,0,1,5,10)">
                    <path d="M54.184,61.781C54.27,61.625 54.336,61.484 54.364,61.304C54.477,60.488 54.329,58.476 54.184,57.633C53.836,58.902 53.813,60.515 54.188,61.777L54.184,61.781Z" style="fill-rule:nonzero;"/>
                </g>
                <g transform="matrix(1,0,0,1,5,10)">
                    <path d="M69.07,52.969C70.449,52.395 71.187,51.364 72.179,50.313C70.722,50.02 69.5,49.192 68.132,48.668C67.39,48.43 65.484,48.633 64.601,48.633C64.027,48.633 63.437,48.559 62.867,48.598C60.394,49.043 58.257,50.598 56.691,52.52C55.972,53.414 54.269,56.227 54.382,57.383C54.621,58.993 55.254,60.723 54.925,62.364C56.636,61.082 58.293,59.883 60.187,58.887C60.25,58.078 60.375,57.188 60.3,56.379C59.039,55.364 57.914,54.457 58.754,52.696C58.66,54.004 59.254,54.86 60.371,55.5C60.394,52.989 60.07,52.219 61.433,49.93C61.109,51.286 60.922,52.578 61.168,53.965C62.687,53.258 63.531,52.254 63.988,50.637C64.062,50.301 64.129,49.965 64.175,49.625C64.418,51.75 63.269,53.79 61.293,54.633C61.3,55.864 61.164,57.09 61.16,58.317C62.332,57.793 63.273,56.907 64.191,56.032C65.218,55.172 66.254,54.235 66.695,52.93C65.57,52.239 65.543,50.856 65.773,49.692C65.886,50.821 65.793,51.77 66.863,52.508C67.554,51.52 67.711,50.254 68.476,49.309C68.003,50.875 67.918,52.2 67.14,53.731C67.773,53.438 68.437,53.247 69.078,52.981L69.07,52.969Z" style="fill-rule:nonzero;"/>
                </g>
                <g transform="matrix(1,0,0,1,5,10)">
                    <path d="M55.004,85.891C54.102,82.547 53.895,79.664 53.66,76.247C53.356,73.684 53.406,71.032 54.172,68.547C54.664,65.653 57.387,63.321 59.566,61.536C59.816,61.336 60.93,60.567 61.023,60.434C58.797,61.797 56.5,63.446 54.809,65.465C53.164,67.676 52.953,70.602 52.895,73.266C52.543,70.606 52.738,67.469 54.434,65.274C57.191,61.481 62.723,58.496 67.235,57.684C69.192,57.442 71.153,57.696 73.09,57.313C66.375,57.168 64.633,57.145 58.758,60.856C57.203,61.891 55.625,62.918 54.196,64.118C52.719,65.524 52.352,67.391 52.059,69.325C51.946,68.063 52.129,66.52 52.547,65.309C52.7,64.864 52.993,64.469 53.043,63.993C53.137,63.094 52.774,61.942 52.731,61C52.524,55.118 56.86,48.535 62.883,47.609C64.363,47.477 65.848,47.746 67.328,47.637C65.684,47.398 64.047,47.066 62.391,46.934C64.664,45.535 67.289,42.672 69.133,40.699C69.996,40.086 70.934,39.516 71.633,38.691L71.645,38.633C70.949,39.188 70.266,39.914 69.344,40.078C69.203,39.18 69.164,38.344 69.141,37.438C68.809,38.469 69.102,39.586 68.812,40.602C68.402,41.754 63.957,45.805 62.812,46.492C61.898,47.043 60.769,47.27 59.793,47.707C56.012,49.348 52.672,53.023 52.73,57.324C52.422,56.25 52.625,55.059 52.762,53.965C52.609,54.047 52.488,54.141 52.309,54.117C52.215,54.066 52.121,54.02 52.031,53.961C51.828,55.094 51.684,56.246 51.465,57.371C51.395,56.18 51.305,54.977 51.27,53.785C51.203,50.414 52.598,47.316 53.52,44.156C53.699,43.356 53.695,42.496 53.758,41.684C53.91,39.488 54.648,37.348 56.16,35.723C53.73,37.809 53.871,39.375 53.387,42.285C52.617,37.856 47.113,34.891 48.676,30.277C48.762,30.004 49.082,29.328 49.066,29.098C46.121,33.93 52.293,37.98 53.106,42.368C53.277,43.305 53.27,44.379 52.84,45.25C51.109,48.211 50.527,51.707 50.238,55.09C50.184,55.664 50.137,56.34 50.313,56.899C51.238,58.707 50.898,60.836 50.977,62.821C51.016,64 51.188,65.157 51.262,66.332C50.816,65.094 50.559,62.969 50.539,61.649C50.523,60.524 50.758,59.168 50.363,58.098C49.914,56.883 48.633,55.903 47.766,54.981C46.84,53.985 45.992,52.93 45.215,51.813C43.445,49.25 42.281,46.5 43.703,43.473C44.223,42.367 45.094,41.422 45.414,40.231C44.258,42.114 42.898,43.489 42.773,45.832C42.578,49.004 44.441,51.836 46.125,54.34C45.738,53.922 45.352,53.598 44.859,53.309C43.356,52.426 39.031,50.953 37.301,50.907C37.082,50.903 36.91,50.942 36.703,51.008L36.688,51.047C38.184,51.004 39.516,51.868 40.883,52.371C41.945,52.801 43.07,53.172 44.063,53.746C46.938,55.375 48.539,59.207 48.086,62.422C47.98,62.911 47.727,63.391 47.762,63.899C47.965,65.594 49.223,67.02 49.231,68.774C49.316,72.286 48.809,75.821 48.336,79.297C47.875,81.012 47.656,82.738 47.625,84.516C47.496,86.453 47.082,88.371 46.402,90.188C47.77,88.406 48.652,83.746 48.793,81.387L48.836,81.406C48.871,84.172 48.391,89.512 46.414,91.511C45.094,92.847 43.43,92.984 42.004,93.96C43.383,93.46 44.863,93.468 46.254,93.062C47.609,92.609 48.785,91.66 49.519,90.433C48.863,92.179 47.32,93.507 45.519,93.984C48.75,95.011 51.266,92.132 54.391,92.128C56.508,92.269 58.273,93.546 60.383,93.777C57.055,92.308 55.797,89.226 54.996,85.898L55.004,85.891ZM48.805,81.329C48.805,81.309 48.809,81.286 48.809,81.262L48.844,81.329L48.805,81.329ZM49.656,79.997L49.641,80.047C49.824,77.071 49.981,74.09 50.18,71.11C50.231,70.539 50.227,69.871 50.406,69.329C50.801,72.18 50.406,77.254 49.656,79.997L49.656,79.997ZM50.551,68.618L50.524,68.625L50.492,68.551L50.527,68.621C50.434,66.618 49.516,65.59 48.984,63.825C48.727,62.887 48.91,61.977 48.828,61.028C48.66,59.032 47.625,57.047 46.731,55.278C48.024,56.961 49.145,59.235 49.203,61.391C49.207,62.188 49.055,62.957 49.254,63.743C49.68,65.446 50.988,66.715 50.547,68.614L50.551,68.618ZM52.356,58.556C52.258,59.735 52.281,60.919 52.277,62.106C52.25,63.067 52.098,64.013 51.981,64.962C51.75,63.216 51.738,60.173 52.359,58.552L52.356,58.556ZM51.93,82.892L51.91,82.903C51.758,81.259 51.84,76.251 52.07,74.349C52.426,77.177 52.086,80.056 51.934,82.895L51.93,82.892Z" style="fill-rule:nonzero;"/>
                </g>
                <g transform="matrix(1,0,0,1,5,10)">
                    <path d="M93.645,52.125C94.684,51.699 95.688,51.18 96.071,50.043C95.102,48.781 93.317,49.059 91.938,48.641C92.286,48.344 92.618,48.016 92.981,47.742C92.176,47.52 91.368,47.305 90.559,47.094C92.301,45.84 89.969,45.133 88.836,45.457C88.977,45.242 89.118,45.031 89.235,44.805C88.797,44.727 88.368,44.633 87.934,44.531C87.641,44.789 87.247,44.965 86.899,45.145L86.844,45.125L86.895,44.981L86.856,44.941C86.375,44.941 85.891,44.957 85.426,44.82C84.059,44.426 83.395,43.18 81.821,43.254L81.219,43.309C81.543,43.692 81.797,43.996 81.934,44.484C81.258,44.031 80.629,43.266 79.743,43.43C78.254,44.012 76.895,43.707 75.364,43.551C73.086,44.75 71.36,47 68.86,47.75C70.071,48.199 71.114,48.891 72.403,49.172C73.071,48.711 73.75,48.313 74.469,47.934C75.18,45.621 77.633,45.117 79.746,44.82C78.036,45.578 75.953,45.758 75.184,47.707C76.551,47.684 77.903,47.578 79.243,47.305C78.528,47.656 77.809,47.949 77.024,48.106C75.387,48.434 74.883,48.188 73.586,49.418C74.899,49.898 76.371,49.945 77.328,51.078C76.797,50.965 76.321,50.692 75.805,50.539C74.774,50.234 73.582,50.32 72.516,50.332C71.875,51.117 71.5,52.137 70.731,52.836C72.196,52.957 73.602,52.484 75,52.106C73.989,52.742 72.668,53.481 71.457,53.586C70.969,53.629 70.465,53.488 69.985,53.598C67.899,54.035 66.332,55.645 64.715,56.918C66.957,56.359 69.211,56.598 71.488,56.727C72.824,56.801 74.145,56.629 75.336,55.977C76.735,55.207 77.606,53.785 78.742,52.699C80.227,51.277 82.024,50.141 83.477,48.692C83.461,47.656 83.649,46.652 83.93,45.664L83.985,45.633C83.832,46.59 83.696,47.555 83.711,48.531C84.395,48.121 85.059,47.914 85.832,47.731C84.192,48.379 82.938,49.746 81.699,50.969C85.305,49.625 89.199,50.555 92.929,50.274C89.25,51.738 85.777,50.481 82.011,52.063C80.093,52.688 78.886,54.317 77.593,55.75C80.05,56.512 82.34,56.035 84.836,56.41C86.82,56.731 88.886,57.656 90.504,58.848C87.261,57.156 83.793,56.703 80.184,57.055C82.281,58.356 84.477,59.328 86.719,60.332C86.129,60.219 85.535,60.113 84.957,59.949C82.184,59.102 79.766,57.563 77.215,56.227C76.117,57.258 74.777,57.828 73.32,58.176C74.34,58.555 75.172,59.336 76.184,59.711C76.844,59.926 77.563,59.844 78.242,59.949C79.352,60.098 80.422,60.52 81.34,61.164L81.324,61.184C79.832,60.363 78.313,60.317 76.633,60.465C76.852,61.731 77.266,62.574 78.196,63.461C76.981,62.723 76.481,61.711 76.082,60.379C74.957,59.731 73.067,58.559 71.809,58.414C70.106,58.449 68.36,58.317 66.684,58.77C64.516,59.344 62.492,60.489 60.703,61.824C61.121,61.856 62.262,62.106 62.59,62.016C62.942,61.949 63.336,61.43 63.676,61.758C64.039,62.133 64.102,63.039 64.844,62.86C65.152,62.516 65.227,61.805 65.313,61.36C65.711,61.856 66.18,62.293 66.672,62.699C67.192,62.285 67.516,61.727 67.856,61.164C68.211,62.82 68.879,65.813 69.867,62.332C69.949,63.219 70,64.696 70.778,65.305C71.738,65.844 71.953,64.047 71.988,63.426C72.567,64.844 73.68,66.524 75.418,66.293C75.492,66.203 75.524,66.184 75.512,66.063C75.477,65.699 75.242,65.102 75.172,64.653C76.09,64.981 76.926,65.348 77.918,65.379C77.738,65.074 77.602,64.766 77.469,64.442C78.52,65.121 79.801,65.352 81.031,65.391C80.863,64.438 80.242,63.692 79.613,62.985C80.676,63.219 81.852,63.274 82.883,62.879C82.617,62.289 82.332,61.828 81.86,61.383C83.238,61.668 84.227,61.418 85.465,60.801C86.418,61.129 87.301,61.336 88.313,61.41C87.969,60.969 87.668,60.555 87.434,60.047C88.203,60.434 89.043,61.102 89.914,61.172C89.856,60.832 89.793,60.5 89.699,60.172C90.598,61.117 91.965,61.254 93.176,60.918C92.875,59.906 92.153,59.235 91.449,58.485C92.203,58.508 92.953,58.274 93.36,57.586C92.547,56.981 91.461,56.746 90.492,56.496C90.653,56.242 90.782,55.996 90.86,55.703C90.485,55.324 89.571,55.242 89.203,54.992C89.957,53.848 88.008,53.348 87.18,53.492C87.227,53.172 87.286,52.848 87.309,52.528C88.02,53.063 88.821,53.274 89.657,53.547L89.567,52.5C90.348,53.469 91.09,54.313 92.239,54.852C92.204,54.289 92.051,53.75 91.903,53.207C93.317,54.117 93.95,54.864 95.754,54.637C95.415,53.371 94.711,52.789 93.633,52.118L93.645,52.125Z" style="fill-rule:nonzero;"/>
                </g>
                <g transform="matrix(1,0,0,1,5,10)">
                    <path d="M30.703,62.367C29.812,62.535 28.961,62.933 28.16,63.344C29.027,62.66 30.051,61.984 31.129,61.711C32.332,61.402 33.004,61.453 34.16,60.832C33.25,60.476 32.437,60.613 31.496,60.539C30.41,60.453 28.57,60.035 27.586,60.519C27.094,60.762 26.851,61.594 26.543,62.027C24.965,64.14 23.164,63.07 21.941,65.664C22.261,64.488 22.804,63.867 23.851,63.269C25.254,62.472 25.941,62.043 26.422,60.433C24.222,59.644 21.675,60.762 20.14,62.375C21.148,60.117 24.722,58.328 26.968,59.765C28.527,58.988 30.304,59.508 31.968,59.555C30.16,57.969 28.351,55.918 25.699,56.101C24.301,56.199 23.258,56.437 21.824,56.09C21.054,56.355 20.402,56.762 19.703,57.172C20.019,56.769 20.371,56.41 20.73,56.047C19.484,55.836 18.656,55.988 17.543,56.586C18.051,56.109 18.625,55.816 19.257,55.539C17.109,54.328 16.062,54.179 13.609,54.211C15.66,53.777 17.019,54.043 18.972,54.707C19.668,54.945 20.375,55.191 21.121,55.172C22.453,55.074 23.672,54.336 24.996,54.156C21.484,52.679 18.293,50.383 14.355,51.828C12.652,52.414 10.984,53.363 9.991,54.914C11.675,50.847 16.835,49.41 20.698,51.121C18.425,48.465 14.605,46.488 11.144,47.902C14.011,45.965 17.741,47.105 20.296,49.074C19.589,47.191 19.488,45.172 18.745,43.297C19.167,44.023 19.53,44.761 19.874,45.527C20.636,44.375 21.593,43.367 22.429,42.281C22.523,42.133 22.585,42.012 22.589,41.836C22.53,41.715 22.491,41.656 22.355,41.613C21.132,41.316 20.21,42.418 19.73,43.402C19.78,42.242 19.909,40.25 18.347,40.094C17.253,40.762 18.261,42.066 18.12,43.035C17.132,41.387 15.757,40.992 15.988,43.43C15.28,42.828 14.394,42.703 13.8,43.527C13.855,42.351 12.734,41.953 11.738,42.054C11.429,42.07 10.952,42.113 10.73,42.347C10.523,42.566 10.616,43.097 10.663,43.371C10.722,43.746 10.804,44.144 10.945,44.496C8.726,43.875 7.843,43.886 8.71,46.449C8.116,46.406 7.386,46.367 6.905,46.777C6.312,47.281 6.386,48.211 6.941,48.718C7.597,49.406 8.605,49.718 9.398,50.226C7.3,50.441 5.101,51.398 4.14,53.386C5.257,53.519 6.343,53.414 7.452,53.5C6.472,54.027 5.226,55.328 4.878,56.398C4.831,56.547 4.839,56.629 4.902,56.769C6.077,57.304 7.413,56.277 8.495,55.863C7.988,56.609 7.859,57.375 7.734,58.25C8.62,58.211 9.429,57.898 10.226,57.531C10.136,58.07 9.886,59.187 10.202,59.652C11.452,59.972 12.698,59.015 13.429,58.07C13.359,58.847 13.597,59.937 14.558,59.953C15.73,59.961 16.351,58.801 17.202,58.195C16.62,60.176 17.144,60.234 18.972,60C18.238,61.121 17.195,61.703 15.929,62.082C15.769,62.129 15.566,62.203 15.612,62.414C15.683,62.742 16.179,63.101 16.46,63.242C17.612,63.781 18.671,62.613 19.843,62.863C19.316,63.168 18.472,63.668 18.214,64.242C18.234,64.55 18.573,64.66 18.8,64.797C17.78,65.336 17.206,66.504 17.327,67.644C17.437,67.738 17.519,67.769 17.663,67.758C18.511,67.703 19.745,66.89 20.319,66.297C20.116,69.687 22.499,67.195 23.069,65.601C23.151,68.422 25.042,65.383 25.569,64.496C25.71,67.847 26.78,66.605 28.495,65.019C28.515,65.539 28.405,66.332 28.612,66.805C29.628,67.047 30.249,65.648 30.691,64.953C31.312,66.711 32.823,64.644 33.14,63.758C33.296,64.273 33.468,65.601 34.276,65.164C35.151,64.761 35.151,63.644 35.577,62.91C36.042,62.972 36.175,63.09 36.698,62.844C37.257,62.562 37.706,62.043 38.198,61.66C37.265,61.547 36.316,61.371 35.378,61.304C33.944,62.265 32.359,62.168 30.714,62.363L30.703,62.367Z" style="fill-rule:nonzero;"/>
                </g>
                <g transform="matrix(1,0,0,1,5,10)">
                    <path d="M47.328,67.816C46.887,65.46 43.934,62.695 41.937,61.476C43.84,62.289 46.812,65.074 47.566,66.98C48.379,68.886 48.16,70.992 48.062,73.004C48.027,75.089 47.969,77.172 47.926,79.257L47.969,79.3C48.285,75.523 49.035,71.683 48.683,67.902C48.426,66.527 47.629,65.328 47.359,63.949C43.781,61.055 41.984,60.406 37.418,60.113C36.277,60.039 35.101,59.965 34.062,59.438C33.051,58.926 32.344,58.031 31.539,57.262C29.328,55.082 26.109,54.203 23.23,55.492C24.141,55.457 24.98,55.234 25.875,55.141C27.824,54.934 29.594,56.008 30.965,57.285C31.945,58.199 32.89,59.266 34.125,59.844C35.762,60.609 37.586,60.492 39.332,60.742C42.449,61.195 45.887,65.137 47.328,67.816L47.328,67.816Z" style="fill-rule:nonzero;"/>
                </g>
                <g transform="matrix(1,0,0,1,5,10)">
                    <path d="M47.938,79.457C47.93,79.391 47.93,79.324 47.926,79.258L47.922,79.254L47.938,79.457Z" style="fill-rule:nonzero;"/>
                </g>
            </g>
        </g>
    </g>
</svg>
