<?xml version="1.0" encoding="UTF-8" standalone="no"?>
<!DOCTYPE svg PUBLIC "-//W3C//DTD SVG 1.1//EN" "http://www.w3.org/Graphics/SVG/1.1/DTD/svg11.dtd">
<svg width="100%" height="100%" viewBox="0 0 873 1080" version="1.1" xmlns="http://www.w3.org/2000/svg" xmlns:xlink="http://www.w3.org/1999/xlink" xml:space="preserve" xmlns:serif="http://www.serif.com/" style="fill-rule:evenodd;clip-rule:evenodd;stroke-linejoin:round;stroke-miterlimit:2;">
    <g id="Монтажная-область1" serif:id="Монтажная область1" transform="matrix(0.80787,0,0,1,0,0)">
        <rect x="0" y="0" width="1080" height="1080" style="fill:none;"/>
        <clipPath id="_clip1">
            <rect x="0" y="0" width="1080" height="1080"/>
        </clipPath>
        <g clip-path="url(#_clip1)">
            <g transform="matrix(-16.7044,0,0,13.4943,1375.21,-134.393)">
                <path d="M81.625,76.684C81.043,75.875 80.082,75.551 79.102,75.641C78.02,75.743 77.109,76.399 77.25,75.805C77.578,74.446 77.719,73.098 77.77,71.696C77.883,68.969 77.566,66.309 76.91,63.672C76.234,60.996 75.223,58.469 73.723,56.141C70.625,51.329 66.488,48.129 61.196,46.012C59.774,45.45 58.387,44.969 56.903,44.59L52.387,43.446C50.344,42.926 48.145,42.016 46.778,40.371C46.473,40.004 46.114,39.524 46.125,39.032C46.125,37.786 46.086,36.61 45.797,35.383C45.387,33.586 44.532,31.938 43.336,30.551C43.153,30.336 43.203,30.114 43.399,29.938C43.911,29.477 44.45,29.11 45.043,28.743C48.282,26.707 51.012,24.809 53.289,21.672C54.832,19.547 55.965,17.157 56.446,14.571C56.598,13.731 56.68,12.957 56.59,12.11C56.469,10.844 55.446,9.934 54.137,10.004C53.297,10.055 52.5,10.321 51.703,10.649C49.844,11.415 47.965,12.754 46.34,14.254C46.309,14.274 46.278,14.305 46.258,14.336C43.293,17.321 45.227,11.986 44.406,10.59C43.985,9.873 42.934,9.864 42.117,10.09C39.442,10.805 36.914,13.524 35.434,15.801C33.348,18.989 32.602,22.364 31.848,26.039C31.797,26.317 31.621,26.5 31.367,26.559C28.875,27.172 26.871,27.723 24.715,29.227C21.528,31.434 20.871,34.438 19.043,37.492C18.594,38.25 18.082,38.942 17.778,39.781C17.481,40.59 17.848,41.528 18.442,42.102C18.727,42.379 18.821,42.602 18.942,42.969C19.278,44.082 20.067,44.973 21.016,45.637C22.957,46.985 25.992,47.293 28.321,47.488C28.996,47.539 28.504,48.438 28.321,48.961C27.789,50.485 27.41,52.028 27.207,53.633C26.727,57.25 27.391,61.082 29.117,64.313C29.985,65.938 30.996,67.43 32.114,68.903C32.93,69.965 34.043,71.211 33.992,72.59C33.973,72.977 34.024,73.336 33.981,73.747C33.735,76.332 33.356,78.868 32.774,81.399C32.641,81.95 32.489,82.43 32.254,82.93C32,83.461 31.496,83.789 30.875,83.789C29.825,83.801 28.77,84.055 27.942,84.75C26.899,85.629 26.36,86.957 26.438,88.297C26.52,89.493 27.469,89.993 28.575,89.993L65.926,89.993C68.082,90.005 70.118,89.513 71.688,87.981C73.559,88.298 75.418,87.95 77.094,87.141C80.211,85.638 82.489,82.329 82.317,78.845C82.278,78.048 82.083,77.313 81.622,76.677L81.625,76.684Z" style="fill-rule:nonzero;"/>
            </g>
        </g>
    </g>
</svg>
