<?xml version="1.0" encoding="UTF-8" standalone="no"?>
<!DOCTYPE svg PUBLIC "-//W3C//DTD SVG 1.1//EN" "http://www.w3.org/Graphics/SVG/1.1/DTD/svg11.dtd">
<svg width="100%" height="100%" viewBox="0 0 873 798" version="1.1" xmlns="http://www.w3.org/2000/svg" xmlns:xlink="http://www.w3.org/1999/xlink" xml:space="preserve" xmlns:serif="http://www.serif.com/" style="fill-rule:evenodd;clip-rule:evenodd;stroke-linejoin:round;stroke-miterlimit:2;">
    <g id="Монтажная-область1" serif:id="Монтажная область1" transform="matrix(0.80787,0,0,0.738426,0,0)">
        <rect x="0" y="0" width="1080" height="1080" style="fill:none;"/>
        <clipPath id="_clip1">
            <rect x="0" y="0" width="1080" height="1080"/>
        </clipPath>
        <g clip-path="url(#_clip1)">
            <g transform="matrix(10.994,0,0,12.0282,-9.50404,-54.5506)">
                <path d="M96.7,62.9C94.4,61.2 92.9,60.3 90.1,60.7C83.4,61.7 80.6,54.7 80.6,54.7C80.2,51.4 84.1,47.6 84.1,47.6C81.3,48 80,45.7 80,45.7C83,47.5 89.5,43.9 94.5,43.2C99.5,42.5 95.1,34 95.1,34C91.9,25 86.5,22.2 81.7,21.6C81,19.3 79.5,15.5 76.9,15.1C74,14.7 73,19.3 72.9,23C68.8,25.7 64.9,32.3 64.9,32.3C59.7,36.2 55.678,35.47 51.7,34.7C43.747,33.16 52.7,11 32.9,5.5C27.7,4 8.9,6 10.5,26.6C12.694,27.019 10.4,29.3 10.3,29.4L10.2,29.5C7.8,32.1 -1.5,43.3 1.6,61.7C5.2,82.7 16.1,89.3 25.3,92C28.3,92.9 32.6,93 37.8,92L37.8,93.6C37.8,94.3 38.4,94.9 39.1,94.9L59.8,94.9C60.4,94.9 61,94.5 61.2,93.9C61.3,93.3 61.1,92 59.9,91.2C58.9,90.5 57.7,90.8 56.5,90.8L46.7,90.4C46.7,90.4 49.153,85.072 53.4,86.5C53.4,86.5 61.4,83.9 64.6,79.1C67.8,74.3 68.3,70.7 69.1,67.2C69.1,67.2 71.9,69.6 79.7,69.6C85.1,69.6 88.8,67.2 88.8,67.2C88.8,67.2 90.4,65.7 92.2,68C92.9,68.9 93.1,69.5 94.2,69.8C95.3,70.1 96,70.2 97.4,69.3C98.7,68.6 99.1,67.4 99.1,66.3C99,64.8 98.1,63.9 96.7,62.9Z" style="fill-rule:nonzero;"/>
            </g>
        </g>
    </g>
</svg>
